<svg xmlns="http://www.w3.org/2000/svg" viewBox="0 0 24 24">
  <ellipse cx="12" cy="10.6" rx="3.4" ry="1.6" fill="#ffffff" stroke="#d9b98a" stroke-width="0.8"/>
  <path fill="#e8493f" stroke="#b32f27" stroke-width="1" stroke-linejoin="round" d="M12 4.2 C13.9 4.2 15.2 5.6 15.2 7.3 C15.2 9.2 13.8 10.6 12 10.6 C10.2 10.6 8.8 9.2 8.8 7.3 C8.8 5.6 10.1 4.2 12 4.2 Z"/>
  <path fill="#fdf3e3" stroke="#d9b98a" stroke-width="1" stroke-linejoin="round" d="M4 12.6 C7 10.8 17 10.8 20 12.6 L20 14.8 H4 Z"/>
  <path fill="#f3d9a4" stroke="#d9b98a" stroke-width="1" d="M4 14.8 H20 V17 H4 Z"/>
  <path fill="#fdf3e3" stroke="#d9b98a" stroke-width="1" stroke-linejoin="round" d="M4 17 H20 V18.6 A1.4 1.4 0 0 1 18.6 20 H5.4 A1.4 1.4 0 0 1 4 18.6 Z"/>
</svg>
